<svg width="125" height="16" viewBox="0 0 125 16" fill="none" xmlns="http://www.w3.org/2000/svg">
<path d="M12.4318 16H11.7938V8.45404H1.21176V16H0.551758V0.600044H1.21176V7.83804H11.7938V0.600044H12.4318V16Z" fill="#262626"/>
<path d="M48.5659 16H39.9859V0.600044H48.3459V1.21604H40.6459V7.86005H47.6859V8.47605H40.6459V15.384H48.5659V16Z" fill="#262626"/>
<path d="M83.0222 0.600044H87.1582L82.2302 8.14604L87.3562 16H83.2202L79.9202 10.83L76.6642 16H72.5282L77.6542 8.14604L72.7702 0.600044H76.9062L80.0302 5.55005L83.0222 0.600044Z" fill="#262626"/>
<path d="M111.046 16H110.364L117.14 0.446045H117.624L124.4 16H123.696L121.21 10.28H113.51L111.046 16ZM120.946 9.66405L117.36 1.41404L113.774 9.66405H120.946Z" fill="#262626"/>
</svg>
